<svg id="pvc-logo" width="470pt" height="320pt" viewBox="0 0 470 320" version="1.1" xmlns="http://www.w3.org/2000/svg">
<path class="outline" fill="#00b7c3"  d=" M 7.33 3.51 C 9.17 2.94 11.11 2.96 13.01 2.92 C 28.02 2.95 43.02 2.94 58.03 2.92 C 60.55 2.90 63.13 3.21 65.37 4.43 C 80.26 11.94 95.21 19.33 110.09 26.84 C 111.26 27.47 112.56 27.82 113.91 27.76 C 181.95 27.73 249.99 27.76 318.03 27.75 C 331.56 27.62 345.11 28.00 358.62 27.57 C 374.53 19.95 390.21 11.78 406.06 4.00 C 408.22 2.97 410.66 2.95 413.01 2.92 C 428.01 2.95 443.01 2.94 458.01 2.92 C 460.46 3.01 463.32 2.89 465.17 4.81 C 467.30 6.54 467.55 9.45 467.59 12.00 C 467.59 110.69 467.58 209.37 467.60 308.06 C 467.56 310.63 467.43 313.56 465.47 315.48 C 463.27 317.68 459.92 317.56 457.04 317.61 C 441.73 317.54 426.42 317.64 411.11 317.56 C 407.93 317.55 405.04 316.11 402.30 314.66 C 388.57 307.73 374.78 300.93 361.05 293.99 C 359.81 293.42 358.57 292.68 357.17 292.76 C 276.09 292.73 195.02 292.77 113.94 292.74 C 111.40 292.60 109.26 294.15 107.06 295.19 C 93.32 302.11 79.52 308.93 65.78 315.87 C 63.40 317.14 60.70 317.65 58.02 317.60 C 42.38 317.56 26.73 317.63 11.10 317.57 C 7.92 317.66 4.48 316.10 3.43 312.92 C 2.64 309.68 2.99 306.32 2.93 303.03 C 2.94 206.00 2.94 108.97 2.93 11.94 C 2.67 8.59 3.91 4.75 7.33 3.51 Z" />
<path class="background" fill="#ffffff" d=" M 17.74 17.75 C 31.26 17.82 44.79 17.59 58.30 17.86 C 71.80 24.09 84.96 31.13 98.33 37.65 C 102.71 39.64 106.88 42.78 111.89 42.75 C 191.92 42.76 271.96 42.74 351.99 42.75 C 356.36 42.68 361.00 43.32 365.03 41.21 C 380.16 33.67 395.27 26.09 410.39 18.53 C 411.79 17.73 413.43 17.72 415.00 17.72 C 427.59 17.79 440.18 17.73 452.77 17.75 C 452.72 107.60 452.77 197.44 452.74 287.29 C 439.82 287.21 426.90 287.22 413.98 287.29 C 411.63 287.37 409.29 286.90 407.23 285.79 C 392.64 278.34 377.91 271.17 363.32 263.72 C 361.67 262.89 359.89 262.24 358.02 262.25 C 276.33 262.23 194.63 262.27 112.93 262.23 C 109.24 262.12 106.13 264.34 102.95 265.88 C 89.63 272.59 76.26 279.20 62.95 285.94 C 59.59 287.74 55.67 287.24 52.01 287.27 C 40.59 287.23 29.17 287.22 17.75 287.28 C 17.74 197.44 17.76 107.60 17.74 17.75 Z" />
<path class="circle" d=" M 41.43 86.50 C 45.68 84.83 50.62 88.36 49.59 93.05 C 50.02 98.19 43.15 100.27 39.69 97.28 C 35.83 94.57 36.93 87.90 41.43 86.50 Z" />
<path class="circle" fill="#00b7c3" d=" M 56.43 86.56 C 57.88 86.11 59.43 86.13 60.92 86.35 C 66.76 87.18 66.84 97.62 60.94 98.43 C 57.41 99.52 53.16 96.85 53.13 93.06 C 52.83 90.52 53.64 87.31 56.43 86.56 Z" />
<path class="circle" fill="#00b7c3" d=" M 72.47 86.59 C 76.86 84.95 81.51 89.67 80.35 94.07 C 79.98 99.08 73.00 100.04 69.75 97.24 C 66.75 94.04 68.11 87.83 72.47 86.59 Z" />
<path class="circle" fill="#00b7c3" d=" M 88.40 86.47 C 92.74 85.18 96.98 89.70 95.87 93.98 C 95.77 99.01 88.87 99.96 85.55 97.44 C 82.09 94.23 83.75 87.57 88.40 86.47 Z" />
<path class="circle" fill="#00b7c3" d=" M 102.41 86.53 C 104.73 85.99 107.55 85.92 109.43 87.62 C 112.98 91.29 110.93 99.36 105.00 98.61 C 98.56 99.10 96.35 88.55 102.41 86.53 Z" />
<path class="circle" fill="#00b7c3" d=" M 118.31 86.46 C 120.84 85.91 124.07 86.04 125.68 88.41 C 127.44 91.40 126.91 96.03 123.63 97.77 C 120.73 99.53 115.86 98.63 114.80 95.06 C 114.05 91.89 114.50 87.31 118.31 86.46 Z" />
<path class="circle" fill="#00b7c3" d=" M 180.44 86.50 C 184.65 84.85 189.58 88.31 188.60 92.98 C 189.09 98.16 182.13 100.30 178.65 97.25 C 174.83 94.52 175.96 87.88 180.44 86.50 Z" />
<path class="circle" fill="#00b7c3" d=" M 195.47 86.55 C 197.97 85.92 201.15 85.94 202.99 88.05 C 204.74 90.63 204.73 94.40 202.88 96.94 C 199.95 99.68 194.49 99.06 192.68 95.32 C 191.47 92.35 191.85 87.61 195.47 86.55 Z" />
<path class="circle" fill="#00b7c3" d=" M 211.41 86.61 C 215.80 84.91 220.51 89.63 219.35 94.05 C 219.01 99.08 211.99 100.05 208.73 97.22 C 205.77 94.03 207.09 87.89 211.41 86.61 Z" />
<path class="circle" fill="#00b7c3" d=" M 257.33 86.45 C 260.04 85.82 263.65 86.15 265.01 88.97 C 266.15 91.70 265.89 95.40 263.37 97.28 C 260.50 99.66 254.97 98.93 253.80 95.05 C 253.04 91.88 253.51 87.29 257.33 86.45 Z" />
<path class="circle" fill="#00b7c3" d=" M 273.43 86.43 C 277.74 85.29 281.86 89.79 280.77 94.03 C 280.55 98.91 273.88 99.92 270.54 97.55 C 266.92 94.34 268.62 87.45 273.43 86.43 Z" />
<path class="circle" fill="#00b7c3" d=" M 288.42 86.61 C 292.86 84.89 297.61 89.63 296.37 94.11 C 296.03 99.11 288.94 100.09 285.80 97.13 C 283.00 93.94 284.24 87.99 288.42 86.61 Z" />
<path class="circle" fill="#00b7c3" d=" M 349.42 86.45 C 353.75 85.25 357.89 89.78 356.82 94.03 C 356.56 98.95 349.82 99.95 346.48 97.47 C 342.99 94.24 344.69 87.47 349.42 86.45 Z" />
<path class="circle" fill="#00b7c3" d=" M 364.42 86.63 C 368.86 84.85 373.61 89.60 372.42 94.08 C 372.08 99.11 365.02 100.06 361.81 97.18 C 358.86 94.01 360.18 87.97 364.42 86.63 Z" />
<path class="circle" fill="#00b7c3" d=" M 378.50 86.68 C 382.34 85.00 388.01 87.12 387.56 91.95 C 388.57 96.73 383.23 100.10 379.12 98.13 C 374.50 96.44 373.93 88.70 378.50 86.68 Z" />
<path class="circle" fill="#00b7c3" d=" M 394.40 86.59 C 396.92 85.92 400.17 85.90 401.98 88.09 C 403.80 90.76 403.68 94.86 401.12 97.04 C 398.34 99.78 392.32 98.98 391.30 94.89 C 390.77 91.92 390.85 87.58 394.40 86.59 Z" />
<path class="circle" fill="#00b7c3" d=" M 410.49 86.56 C 414.87 85.00 419.46 89.68 418.28 94.06 C 417.99 99.08 411.00 100.01 407.74 97.27 C 404.70 94.06 406.05 87.78 410.49 86.56 Z" />
<path class="circle" fill="#00b7c3" d=" M 426.38 86.47 C 430.71 85.20 434.95 89.70 433.84 93.99 C 433.71 98.98 426.80 99.99 423.53 97.40 C 420.24 94.14 421.79 87.62 426.38 86.47 Z" />
<path class="circle" fill="#00b7c3" d=" M 40.49 102.33 C 44.49 99.91 50.55 102.95 49.62 108.02 C 50.26 113.39 43.07 115.59 39.52 112.44 C 36.15 109.95 36.81 104.21 40.49 102.33 Z" />
<path class="circle" fill="#00b7c3" d=" M 55.39 102.43 C 58.43 100.77 63.75 101.23 64.83 105.12 C 65.90 108.13 65.15 112.59 61.64 113.52 C 58.75 114.26 54.54 113.94 53.43 110.63 C 52.88 107.87 52.66 104.15 55.39 102.43 Z" />
<path class="circle" fill="#00b7c3" d=" M 71.22 102.22 C 75.23 100.20 80.80 103.33 80.42 108.00 C 80.89 114.00 71.46 116.36 68.78 111.27 C 67.66 108.27 67.78 103.63 71.22 102.22 Z" />
<path class="circle" fill="#00b7c3" d=" M 87.28 102.25 C 90.16 100.89 94.61 101.76 95.65 105.12 C 96.00 107.53 96.40 110.53 94.58 112.49 C 91.66 115.28 86.17 114.39 84.39 110.70 C 82.70 107.72 84.24 103.65 87.28 102.25 Z" />
<path class="circle" fill="#00b7c3" d=" M 101.36 102.36 C 104.23 100.96 108.83 101.12 110.40 104.37 C 111.77 107.45 111.35 112.37 107.61 113.49 C 104.91 114.13 101.21 114.13 99.65 111.39 C 98.28 108.51 98.43 104.22 101.36 102.36 Z" />
<path class="circle" fill="#00b7c3" d=" M 117.23 102.23 C 120.25 100.96 125.11 101.24 126.26 104.93 C 126.95 107.70 126.99 111.56 124.10 113.11 C 121.11 114.45 116.59 114.18 114.96 110.89 C 114.20 108.00 114.10 103.76 117.23 102.23 Z" />
<path class="circle" fill="#00b7c3" d=" M 133.22 102.21 C 136.16 100.88 140.74 101.83 141.60 105.35 C 142.16 108.24 142.12 112.42 138.78 113.57 C 134.92 115.46 129.46 112.57 129.68 108.07 C 129.39 105.58 131.06 103.27 133.22 102.21 Z" />
<path class="circle" fill="#00b7c3" d=" M 179.44 102.37 C 181.03 101.27 183.10 101.51 184.89 101.86 C 189.96 103.22 190.02 112.23 184.89 113.56 C 182.52 114.14 179.74 113.89 178.02 111.99 C 175.20 109.33 176.02 104.15 179.44 102.37 Z" />
<path class="circle" fill="#00b7c3" d=" M 194.46 102.38 C 197.31 100.96 201.93 101.13 203.53 104.33 C 204.85 107.27 204.59 111.76 201.31 113.28 C 198.32 114.36 193.69 114.16 192.44 110.66 C 191.86 107.86 191.67 104.09 194.46 102.38 Z" />
<path class="circle" fill="#00b7c3" d=" M 210.26 102.20 C 214.27 100.23 219.78 103.33 219.42 107.98 C 219.80 113.68 211.37 116.35 208.13 111.88 C 206.49 108.86 206.63 103.70 210.26 102.20 Z" />
<path class="circle" fill="#00b7c3" d=" M 256.25 102.22 C 259.27 100.96 264.12 101.25 265.27 104.94 C 265.94 107.70 266.00 111.55 263.12 113.10 C 260.11 114.47 255.55 114.18 253.94 110.85 C 253.21 107.96 253.11 103.73 256.25 102.22 Z" />
<path class="circle" fill="#00b7c3" d=" M 272.24 102.21 C 275.16 100.91 279.66 101.81 280.58 105.26 C 281.15 108.15 281.16 112.36 277.82 113.55 C 273.93 115.50 268.37 112.52 268.68 107.95 C 268.43 105.50 270.11 103.24 272.24 102.21 Z" />
<path class="circle" fill="#00b7c3" d=" M 287.25 102.23 C 290.26 101.04 295.03 101.44 296.09 105.09 C 296.96 108.14 296.65 112.76 292.95 113.72 C 289.40 115.29 284.76 112.73 284.41 108.83 C 284.13 106.39 284.69 103.25 287.25 102.23 Z" />
<path class="circle" fill="#00b7c3" d=" M 332.29 102.20 C 335.23 101.01 339.84 101.25 341.18 104.65 C 342.27 107.62 341.95 112.13 338.51 113.38 C 335.55 114.35 331.45 114.02 329.96 110.84 C 329.22 107.94 329.15 103.71 332.29 102.20 Z" />
<path class="circle" fill="#00b7c3" d=" M 347.32 102.41 C 350.98 100.26 356.55 102.60 356.84 107.02 C 357.75 111.27 353.12 115.21 349.06 113.93 C 343.75 113.27 343.09 104.83 347.32 102.41 Z" />
<path class="circle" fill="#00b7c3" d=" M 363.37 102.49 C 366.23 100.77 371.07 101.59 372.15 105.11 C 373.03 108.18 372.63 112.83 368.93 113.74 C 365.32 115.25 360.80 112.69 360.29 108.83 C 359.87 106.33 361.20 103.74 363.37 102.49 Z" />
<path class="circle" fill="#00b7c3" d=" M 378.24 102.16 C 381.24 100.98 386.01 101.31 387.15 104.93 C 388.01 107.84 387.78 111.98 384.56 113.32 C 381.62 114.32 377.26 114.15 375.89 110.83 C 374.95 107.94 375.06 103.62 378.24 102.16 Z" />
<path class="circle" fill="#00b7c3" d=" M 393.40 102.42 C 396.44 100.80 401.76 101.19 402.79 105.13 C 403.80 108.12 403.13 112.57 399.64 113.54 C 396.74 114.22 392.54 113.94 391.41 110.63 C 390.87 107.87 390.62 104.11 393.40 102.42 Z" />
<path class="circle" fill="#00b7c3" d=" M 409.42 102.39 C 412.31 100.77 417.08 101.70 418.07 105.22 C 418.83 108.29 418.51 112.82 414.79 113.72 C 410.97 115.38 405.94 112.24 406.18 107.99 C 405.96 105.66 407.42 103.47 409.42 102.39 Z" />
<path class="circle" fill="#00b7c3" d=" M 424.37 102.45 C 427.38 100.90 432.47 101.39 433.61 105.12 C 433.98 107.55 434.37 110.55 432.53 112.51 C 429.61 115.26 424.11 114.40 422.43 110.66 C 421.21 107.97 421.64 104.05 424.37 102.45 Z" />
<path class="circle" fill="#00b7c3" d=" M 40.42 117.30 C 41.77 116.36 43.49 116.35 45.05 116.58 C 50.95 117.08 51.35 127.35 45.67 128.52 C 43.13 129.25 40.20 128.53 38.56 126.39 C 36.26 123.62 37.24 118.96 40.42 117.30 Z" />
<path class="circle" fill="#00b7c3" d=" M 55.41 117.32 C 59.15 115.12 65.47 116.93 65.23 121.99 C 66.13 126.27 61.98 129.71 57.89 128.73 C 52.32 128.52 51.45 120.09 55.41 117.32 Z" />
<path class="circle" fill="#00b7c3" d=" M 71.18 117.12 C 74.89 115.37 80.05 117.65 80.38 121.96 C 81.16 126.08 77.00 129.80 72.98 128.84 C 67.17 128.76 66.44 119.28 71.18 117.12 Z" />
<path class="circle" fill="#00b7c3" d=" M 117.14 117.19 C 120.12 115.84 124.86 116.09 126.19 119.62 C 126.98 122.43 127.06 126.46 124.07 128.03 C 120.95 129.54 115.84 128.99 114.76 125.13 C 114.29 122.40 114.27 118.62 117.14 117.19 Z" />
<path class="circle" fill="#00b7c3" d=" M 133.16 117.13 C 136.13 115.84 140.74 116.69 141.60 120.28 C 142.09 123.04 142.19 126.82 139.27 128.29 C 136.61 129.35 133.05 129.24 131.11 126.86 C 128.42 123.94 129.54 118.75 133.16 117.13 Z" />
<path class="circle" fill="#00b7c3" d=" M 148.18 117.18 C 151.21 116.01 156.06 116.33 157.11 120.04 C 157.73 122.76 157.87 126.45 155.15 128.10 C 152.15 129.70 147.76 129.11 146.09 125.87 C 144.71 123.07 145.05 118.64 148.18 117.18 Z" />
<path class="circle" fill="#00b7c3" d=" M 179.43 117.29 C 180.80 116.36 182.52 116.35 184.10 116.59 C 189.96 117.14 190.33 127.37 184.66 128.52 C 181.89 129.35 178.65 128.32 177.14 125.80 C 175.36 122.97 176.48 118.85 179.43 117.29 Z" />
<path class="circle" fill="#00b7c3" d=" M 194.41 117.32 C 198.15 115.11 204.46 116.93 204.23 121.99 C 205.11 126.24 201.06 129.66 197.00 128.74 C 191.35 128.63 190.41 120.12 194.41 117.32 Z" />
<path class="circle" fill="#00b7c3" d=" M 210.14 117.14 C 214.21 115.11 219.88 118.22 219.42 123.00 C 219.69 128.68 211.35 131.06 208.13 126.81 C 206.51 123.80 206.62 118.77 210.14 117.14 Z" />
<path class="circle" fill="#00b7c3" d=" M 256.16 117.18 C 259.15 115.83 263.95 116.12 265.21 119.69 C 265.99 122.50 266.03 126.50 263.05 128.05 C 259.92 129.54 254.80 128.97 253.75 125.10 C 253.29 122.37 253.28 118.59 256.16 117.18 Z" />
<path class="circle" fill="#00b7c3" d=" M 272.19 117.12 C 275.13 115.87 279.63 116.67 280.57 120.17 C 281.10 122.96 281.22 126.82 278.25 128.31 C 275.60 129.34 272.07 129.24 270.13 126.89 C 267.41 123.96 268.54 118.72 272.19 117.12 Z" />
<path class="circle" fill="#00b7c3" d=" M 287.23 117.16 C 290.90 115.52 296.73 117.10 296.43 121.94 C 297.38 125.86 294.06 129.75 289.99 128.88 C 284.09 129.06 282.13 119.64 287.23 117.16 Z" />
<path class="circle" fill="#00b7c3" d=" M 317.18 117.13 C 321.25 114.85 326.95 118.02 326.19 122.93 C 326.72 128.40 319.29 130.65 315.81 127.14 C 312.52 124.50 313.46 118.89 317.18 117.13 Z" />
<path class="circle" fill="#00b7c3" d=" M 332.17 117.17 C 335.95 115.17 342.00 117.07 341.70 122.03 C 342.60 126.39 338.27 129.79 334.16 128.70 C 328.65 128.28 327.92 119.63 332.17 117.17 Z" />
<path class="circle" fill="#00b7c3" d=" M 347.39 117.26 C 351.09 115.28 356.68 117.52 356.84 122.03 C 357.59 125.91 353.77 129.63 349.91 128.87 C 343.95 129.20 342.76 119.76 347.39 117.26 Z" />
<path class="circle" fill="#00b7c3" d=" M 41.24 132.23 C 44.32 130.90 48.99 132.34 49.44 136.07 C 49.92 138.73 49.57 142.43 46.65 143.53 C 43.58 144.88 38.65 144.27 37.66 140.53 C 36.50 137.33 37.99 133.46 41.24 132.23 Z" />
<path class="circle" fill="#00b7c3" d=" M 56.41 132.46 C 60.31 130.18 65.87 133.32 65.28 138.01 C 65.78 142.46 60.98 145.29 57.05 143.95 C 51.77 142.85 51.80 134.45 56.41 132.46 Z" />
<path class="circle" fill="#00b7c3" d=" M 71.34 132.42 C 75.30 130.82 80.61 133.38 80.42 138.02 C 81.00 143.84 72.32 146.57 69.08 142.01 C 67.46 139.00 67.69 133.84 71.34 132.42 Z" />
<path class="circle" fill="#00b7c3" d=" M 117.32 132.47 C 121.66 129.97 127.60 133.99 126.60 138.97 C 126.76 142.94 122.33 144.92 118.93 144.02 C 113.57 143.38 112.91 134.69 117.32 132.47 Z" />
<path class="circle" fill="#00b7c3" d=" M 133.31 132.48 C 137.10 130.48 142.60 133.37 141.84 137.97 C 142.94 143.38 135.74 146.21 132.00 142.96 C 128.28 140.43 129.13 134.04 133.31 132.48 Z" />
<path class="circle" fill="#00b7c3" d=" M 148.30 132.50 C 151.26 131.25 155.76 131.81 157.07 135.16 C 157.81 138.02 157.87 142.23 154.69 143.61 C 151.58 145.00 146.55 144.44 145.62 140.59 C 144.93 137.78 145.24 133.77 148.30 132.50 Z" />
<path class="circle" fill="#00b7c3" d=" M 180.16 132.27 C 183.25 130.87 187.99 132.31 188.44 136.07 C 188.90 138.70 188.59 142.35 185.73 143.50 C 182.65 144.89 177.66 144.30 176.66 140.53 C 175.51 137.36 176.96 133.52 180.16 132.27 Z" />
<path class="circle" fill="#00b7c3" d=" M 195.36 132.48 C 199.23 130.17 204.85 133.27 204.28 137.96 C 204.80 142.42 200.01 145.30 196.06 143.95 C 190.80 142.87 190.79 134.51 195.36 132.48 Z" />
<path class="circle" fill="#00b7c3" d=" M 210.32 132.42 C 214.30 130.81 219.64 133.40 219.42 138.05 C 219.97 143.88 211.23 146.58 208.05 141.95 C 206.47 138.94 206.70 133.84 210.32 132.42 Z" />
<path class="circle" fill="#00b7c3" d=" M 256.30 132.48 C 260.65 129.96 266.61 133.99 265.60 138.98 C 265.75 142.93 261.35 144.91 257.96 144.02 C 252.58 143.42 251.90 134.72 256.30 132.48 Z" />
<path class="circle" fill="#00b7c3" d=" M 272.32 132.47 C 275.39 130.96 280.24 132.37 280.70 136.15 C 280.96 138.49 281.10 141.34 279.11 143.02 C 276.19 145.13 271.60 144.60 269.60 141.49 C 267.51 138.50 268.88 133.79 272.32 132.47 Z" />
<path class="circle" fill="#00b7c3" d=" M 287.33 132.48 C 290.29 131.26 294.78 131.82 296.08 135.18 C 296.80 138.02 296.87 142.21 293.71 143.60 C 290.60 145.01 285.55 144.45 284.61 140.58 C 283.93 137.76 284.25 133.75 287.33 132.48 Z" />
<path class="circle" fill="#00b7c3" d=" M 317.37 132.40 C 321.27 130.22 326.75 133.30 326.19 137.97 C 326.68 142.42 321.95 145.28 317.98 143.96 C 312.51 142.95 312.46 134.32 317.37 132.40 Z" />
<path class="circle" fill="#00b7c3" d=" M 333.33 132.23 C 337.20 130.45 342.39 133.43 341.72 137.97 C 342.40 142.67 337.03 145.47 333.06 143.76 C 327.98 142.21 328.55 133.89 333.33 132.23 Z" />
<path class="circle" fill="#00b7c3" d=" M 348.22 132.30 C 352.50 130.70 357.75 134.24 356.85 138.99 C 356.55 144.49 348.05 146.25 345.36 141.62 C 343.90 138.52 344.41 133.41 348.22 132.30 Z" />
<path class="circle" fill="#00b7c3" d=" M 40.44 147.35 C 44.04 144.90 49.31 147.92 49.57 152.10 C 49.95 154.76 48.74 157.98 45.88 158.62 C 43.48 159.00 40.55 159.17 38.72 157.26 C 36.28 154.30 37.01 149.25 40.44 147.35 Z" />
<path class="circle" fill="#00b7c3" d=" M 56.26 147.20 C 60.68 144.58 66.34 149.34 65.18 154.14 C 64.78 159.43 57.11 160.39 54.08 156.90 C 52.24 153.81 52.82 148.96 56.26 147.20 Z" />
<path class="circle" fill="#00b7c3" d=" M 71.19 147.27 C 75.58 144.99 81.47 149.03 80.38 154.02 C 80.44 160.34 69.26 160.86 68.35 154.85 C 67.86 152.14 68.20 148.40 71.19 147.27 Z" />
<path class="circle" fill="#00b7c3" d=" M 117.41 147.47 C 120.72 144.99 125.81 147.42 126.50 151.34 C 126.98 153.96 126.37 157.43 123.54 158.45 C 120.82 159.18 117.19 159.25 115.42 156.64 C 113.69 153.69 114.33 149.31 117.41 147.47 Z" />
<path class="circle" fill="#00b7c3" d=" M 133.30 147.24 C 136.20 145.93 140.66 146.89 141.59 150.29 C 142.20 153.23 142.09 157.48 138.66 158.59 C 136.08 159.07 132.71 159.44 130.86 157.14 C 128.48 154.02 129.56 148.79 133.30 147.24 Z" />
<path class="circle" fill="#00b7c3" d=" M 148.43 147.51 C 151.26 145.80 156.05 146.67 157.13 150.14 C 157.83 153.01 157.77 157.08 154.59 158.45 C 152.05 159.15 148.69 159.42 146.68 157.37 C 144.39 154.38 144.97 149.39 148.43 147.51 Z" />
<path class="circle" fill="#00b7c3" d=" M 179.39 147.38 C 182.98 144.86 188.33 147.91 188.57 152.12 C 188.95 154.78 187.73 157.97 184.88 158.62 C 182.48 159.00 179.54 159.17 177.71 157.25 C 175.31 154.31 175.99 149.29 179.39 147.38 Z" />
<path class="circle" fill="#00b7c3" d=" M 195.30 147.18 C 199.69 144.62 205.28 149.30 204.19 154.07 C 203.87 159.42 196.07 160.43 193.06 156.86 C 191.24 153.76 191.84 148.92 195.30 147.18 Z" />
<path class="circle" fill="#00b7c3" d=" M 210.22 147.26 C 214.61 145.00 220.46 149.03 219.38 154.01 C 219.45 160.33 208.27 160.86 207.35 154.86 C 206.85 152.13 207.20 148.37 210.22 147.26 Z" />
<path class="circle" fill="#00b7c3" d=" M 256.44 147.45 C 259.96 144.83 265.40 147.78 265.59 152.03 C 265.88 154.47 265.14 157.51 262.58 158.43 C 259.84 159.20 256.15 159.26 254.39 156.60 C 252.71 153.64 253.35 149.27 256.44 147.45 Z" />
<path class="circle" fill="#00b7c3" d=" M 272.32 147.23 C 275.21 145.93 279.67 146.89 280.59 150.30 C 281.19 153.22 281.10 157.43 277.71 158.57 C 275.12 159.07 271.71 159.45 269.85 157.13 C 267.47 154.01 268.57 148.77 272.32 147.23 Z" />
<path class="circle" fill="#00b7c3" d=" M 287.39 147.53 C 290.20 145.80 295.00 146.64 296.10 150.08 C 296.85 152.98 296.77 157.12 293.54 158.47 C 291.00 159.14 287.65 159.42 285.66 157.35 C 283.40 154.36 283.97 149.42 287.39 147.53 Z" />
<path class="circle" fill="#00b7c3" d=" M 317.24 147.15 C 321.99 144.45 327.74 149.99 325.89 154.91 C 325.13 159.08 319.93 159.52 316.67 158.33 C 312.40 156.11 313.02 149.14 317.24 147.15 Z" />
<path class="circle" fill="#00b7c3" d=" M 332.41 147.44 C 335.53 145.16 340.18 147.18 341.37 150.68 C 342.28 153.43 341.53 157.34 338.52 158.44 C 335.83 159.20 332.21 159.23 330.46 156.65 C 328.72 153.69 329.36 149.32 332.41 147.44 Z" />
<path class="circle" fill="#00b7c3" d=" M 347.29 147.47 C 351.68 144.78 358.00 148.83 356.84 154.02 C 356.93 159.05 350.40 160.05 346.91 158.07 C 343.70 155.69 343.74 149.52 347.29 147.47 Z" />
<path class="circle" fill="#00b7c3" d=" M 41.34 162.23 C 45.23 160.53 50.28 163.55 49.62 168.05 C 50.57 173.68 42.91 176.38 39.35 172.62 C 35.83 169.80 37.14 163.65 41.34 162.23 Z" />
<path class="circle" fill="#00b7c3" d=" M 56.21 162.34 C 58.81 161.36 62.30 161.61 64.11 163.94 C 66.32 167.28 65.51 173.42 60.90 174.12 C 57.48 175.16 53.37 172.66 53.16 169.01 C 52.83 166.48 53.46 163.23 56.21 162.34 Z" />
<path class="circle" fill="#00b7c3" d=" M 72.26 162.31 C 76.44 160.82 81.12 164.57 80.41 168.99 C 80.75 174.64 72.74 176.03 69.44 172.61 C 66.90 169.30 68.20 163.76 72.26 162.31 Z" />
<path class="circle" fill="#00b7c3" d=" M 87.40 162.52 C 91.59 160.52 96.83 164.45 95.91 169.06 C 96.32 174.55 88.56 175.95 85.21 172.82 C 82.50 169.71 83.59 164.22 87.40 162.52 Z" />
<path class="circle" fill="#00b7c3" d=" M 102.21 162.27 C 106.24 160.47 111.65 163.22 111.13 168.01 C 111.78 172.73 106.37 175.77 102.40 173.74 C 97.87 171.85 97.48 164.10 102.21 162.27 Z" />
<path class="circle" fill="#00b7c3" d=" M 117.30 162.53 C 119.85 161.35 123.29 161.55 125.35 163.58 C 127.35 166.40 127.17 171.02 124.16 173.10 C 121.14 175.55 115.16 174.32 114.67 170.01 C 114.28 167.36 114.46 163.77 117.30 162.53 Z" />
<path class="circle" fill="#00b7c3" d=" M 133.37 162.47 C 137.56 160.56 142.65 164.50 141.82 169.03 C 142.19 174.54 134.47 175.93 131.08 172.83 C 128.42 169.70 129.43 164.08 133.37 162.47 Z" />
<path class="circle" fill="#00b7c3" d=" M 180.28 162.25 C 183.32 160.99 187.88 162.37 188.40 166.01 C 188.97 168.73 188.61 172.52 185.67 173.71 C 182.15 175.47 177.42 173.47 176.48 169.62 C 175.68 166.62 177.42 163.37 180.28 162.25 Z" />
<path class="circle" fill="#00b7c3" d=" M 195.17 162.35 C 197.78 161.36 201.27 161.60 203.10 163.92 C 205.30 167.24 204.54 173.35 199.97 174.11 C 196.55 175.19 192.38 172.70 192.16 169.02 C 191.83 166.50 192.45 163.26 195.17 162.35 Z" />
<path class="circle" fill="#00b7c3" d=" M 211.23 162.32 C 215.44 160.80 220.14 164.59 219.41 169.03 C 219.68 174.42 212.48 175.80 208.93 173.10 C 205.75 170.00 206.98 163.83 211.23 162.32 Z" />
<path class="circle" fill="#00b7c3" d=" M 256.32 162.52 C 258.87 161.34 262.34 161.55 264.38 163.62 C 266.34 166.43 266.17 170.99 263.19 173.07 C 260.19 175.57 254.16 174.33 253.67 170.00 C 253.27 167.35 253.47 163.75 256.32 162.52 Z" />
<path class="circle" fill="#00b7c3" d=" M 272.40 162.46 C 276.59 160.58 281.65 164.52 280.82 169.04 C 281.18 174.50 273.59 175.90 270.16 172.91 C 267.38 169.81 268.40 164.05 272.40 162.46 Z" />
<path class="circle" fill="#00b7c3" d=" M 288.24 162.33 C 292.43 160.78 297.21 164.55 296.45 169.00 C 296.79 174.41 289.51 175.83 285.99 173.05 C 282.99 169.93 284.11 163.94 288.24 162.33 Z" />
<path class="circle" fill="#00b7c3" d=" M 317.35 162.47 C 321.30 160.24 326.75 163.39 326.20 168.08 C 326.90 173.47 319.78 176.29 316.08 172.87 C 312.50 170.28 313.31 164.16 317.35 162.47 Z" />
<path class="circle" fill="#00b7c3" d=" M 332.33 162.52 C 335.38 161.06 340.37 161.73 341.35 165.49 C 342.16 168.31 341.87 172.42 338.75 173.71 C 335.40 175.36 330.92 173.68 329.78 170.06 C 329.23 167.40 329.48 163.77 332.33 162.52 Z" />
<path class="circle" fill="#00b7c3" d=" M 348.37 162.49 C 352.57 160.53 357.71 164.48 356.86 169.04 C 357.20 174.53 349.54 175.95 346.14 172.84 C 343.41 169.74 344.47 164.12 348.37 162.49 Z" />
<path class="circle" fill="#00b7c3" d=" M 41.47 176.51 C 45.62 174.88 50.54 178.29 49.60 182.91 C 50.15 188.48 42.46 190.43 39.09 186.81 C 35.91 183.78 37.25 177.82 41.47 176.51 Z" />
<path class="circle" fill="#00b7c3" d=" M 56.44 176.57 C 60.79 174.79 66.24 178.00 65.25 183.04 C 65.64 188.95 56.89 190.57 54.08 185.98 C 52.28 183.05 52.67 177.75 56.44 176.57 Z" />
<path class="circle" fill="#00b7c3" d=" M 72.41 176.59 C 76.81 174.94 81.52 179.64 80.35 184.08 C 80.00 189.09 73.01 190.05 69.75 187.25 C 66.74 184.05 68.11 177.93 72.41 176.59 Z" />
<path class="circle" fill="#00b7c3" d=" M 88.36 176.48 C 92.69 175.19 96.99 179.67 95.87 183.98 C 95.77 189.00 88.88 189.97 85.56 187.47 C 82.07 184.25 83.75 177.66 88.36 176.48 Z" />
<path class="circle" fill="#00b7c3" d=" M 102.41 176.54 C 105.26 175.75 109.41 176.12 110.56 179.34 C 111.11 181.75 111.35 184.65 109.86 186.78 C 107.27 189.46 102.12 189.27 100.01 186.05 C 97.85 183.12 98.60 177.70 102.41 176.54 Z" />
<path class="circle" fill="#00b7c3" d=" M 118.30 176.46 C 120.83 175.91 124.08 176.04 125.68 178.41 C 127.43 181.38 126.92 185.97 123.70 187.75 C 120.80 189.56 115.82 188.65 114.80 185.04 C 114.05 181.88 114.52 177.32 118.30 176.46 Z" />
<path class="circle" fill="#00b7c3" d=" M 180.41 176.53 C 184.63 174.81 189.62 178.36 188.59 183.05 C 189.04 188.83 180.73 190.47 177.67 186.34 C 175.00 183.20 176.48 177.82 180.41 176.53 Z" />
<path class="circle" fill="#00b7c3" d=" M 195.43 176.58 C 199.77 174.80 205.21 177.97 204.25 183.00 C 204.66 188.62 196.64 190.52 193.51 186.52 C 191.14 183.68 191.48 177.86 195.43 176.58 Z" />
<path class="circle" fill="#00b7c3" d=" M 211.50 176.56 C 215.87 174.99 220.53 179.69 219.34 184.10 C 218.98 189.09 212.00 190.05 208.76 187.25 C 205.72 184.03 207.13 177.85 211.50 176.56 Z" />
<path class="circle" fill="#00b7c3" d=" M 257.31 176.45 C 261.13 175.12 266.13 177.54 265.63 182.04 C 266.42 187.89 258.01 191.03 254.52 186.52 C 252.68 183.31 253.05 177.51 257.31 176.45 Z" />
<path class="circle" fill="#00b7c3" d=" M 273.40 176.43 C 277.73 175.29 281.88 179.82 280.77 184.07 C 280.46 189.18 273.06 190.16 269.96 187.00 C 267.12 183.50 268.91 177.50 273.40 176.43 Z" />
<path class="circle" fill="#00b7c3" d=" M 288.47 176.60 C 292.86 174.94 297.57 179.64 296.38 184.07 C 296.08 189.05 288.99 190.14 285.83 187.17 C 282.98 183.97 284.25 177.97 288.47 176.60 Z" />
<path class="circle" fill="#00b7c3" d=" M 317.51 176.69 C 321.77 174.64 327.10 178.12 326.16 182.99 C 326.52 188.61 318.57 190.50 315.38 186.54 C 312.47 183.58 313.79 178.28 317.51 176.69 Z" />
<path class="circle" fill="#00b7c3" d=" M 333.34 176.45 C 337.16 175.16 342.09 177.54 341.72 182.01 C 342.65 186.82 337.21 190.18 333.08 188.07 C 328.34 186.19 328.17 177.79 333.34 176.45 Z" />
<path class="circle" fill="#00b7c3" d=" M 349.36 176.44 C 353.71 175.24 357.93 179.78 356.81 184.07 C 356.47 190.37 345.22 190.41 344.76 184.11 C 343.99 180.82 346.15 177.35 349.36 176.44 Z" />
<path class="circle" fill="#00b7c3" d=" M 40.46 192.37 C 41.79 191.41 43.49 191.52 45.03 191.69 C 50.87 192.16 51.34 202.16 45.88 203.60 C 43.51 204.13 40.73 203.90 39.01 201.99 C 36.17 199.33 37.04 194.14 40.46 192.37 Z" />
<path class="circle" fill="#00b7c3" d=" M 55.32 192.49 C 58.17 190.94 62.87 191.08 64.52 194.32 C 65.87 197.25 65.58 201.73 62.33 203.29 C 59.33 204.35 54.68 204.18 53.44 200.65 C 52.89 197.91 52.65 194.22 55.32 192.49 Z" />
<path class="circle" fill="#00b7c3" d=" M 71.24 192.21 C 75.27 190.21 80.82 193.36 80.42 198.04 C 80.72 203.73 72.33 206.36 69.11 201.87 C 67.51 198.85 67.65 193.74 71.24 192.21 Z" />
<path class="circle" fill="#00b7c3" d=" M 194.37 192.47 C 197.23 190.93 201.96 191.10 203.55 194.39 C 204.85 197.32 204.57 201.73 201.36 203.28 C 198.35 204.36 193.66 204.18 192.43 200.63 C 191.89 197.89 191.65 194.18 194.37 192.47 Z" />
<path class="circle" fill="#00b7c3" d=" M 210.21 192.23 C 214.22 190.19 219.81 193.34 219.42 198.02 C 219.74 203.70 211.37 206.36 208.12 201.90 C 206.51 198.89 206.63 193.78 210.21 192.23 Z" />
<path class="circle" fill="#00b7c3" d=" M 256.25 192.24 C 259.27 190.96 264.09 191.27 265.26 194.92 C 266.04 197.87 265.91 202.21 262.50 203.42 C 259.53 204.31 255.35 204.04 253.92 200.80 C 253.21 197.92 253.13 193.73 256.25 192.24 Z" />
<path class="circle" fill="#00b7c3" d=" M 272.29 192.20 C 275.23 190.90 279.73 191.86 280.60 195.35 C 281.15 198.23 281.13 202.40 277.80 203.57 C 274.26 205.29 269.39 203.12 268.75 199.14 C 268.15 196.34 269.66 193.33 272.29 192.20 Z" />
<path class="circle" fill="#00b7c3" d=" M 317.25 192.19 C 319.97 190.95 324.06 191.41 325.46 194.41 C 326.78 197.30 326.46 201.68 323.32 203.26 C 320.65 204.32 317.21 204.07 315.28 201.72 C 312.53 198.88 313.76 193.81 317.25 192.19 Z" />
<path class="circle" fill="#00b7c3" d=" M 332.31 192.21 C 336.49 190.07 342.59 192.79 341.73 198.03 C 342.42 204.39 332.42 206.04 329.96 200.81 C 329.22 197.91 329.16 193.69 332.31 192.21 Z" />
<path class="circle" fill="#00b7c3" d=" M 347.35 192.37 C 351.37 190.05 357.36 193.17 356.88 198.04 C 357.21 203.52 349.30 206.28 345.88 202.19 C 343.90 199.31 344.07 194.27 347.35 192.37 Z" />
<path class="circle" fill="#00b7c3" d=" M 41.50 206.66 C 45.58 205.04 50.53 208.34 49.60 212.95 C 50.17 218.85 41.53 220.59 38.36 216.55 C 36.12 213.22 37.49 207.91 41.50 206.66 Z" />
<path class="circle" fill="#00b7c3" d=" M 57.41 206.55 C 60.24 205.83 64.18 206.80 64.90 210.05 C 65.73 212.85 65.27 216.89 62.19 218.11 C 59.57 219.10 56.21 218.96 54.20 216.79 C 51.86 213.40 53.11 207.69 57.41 206.55 Z" />
<path class="circle" fill="#00b7c3" d=" M 242.39 206.50 C 245.19 205.90 249.08 206.83 249.76 210.04 C 250.62 212.89 250.09 217.03 246.90 218.17 C 243.83 219.32 238.99 218.70 238.19 214.93 C 236.87 211.57 238.93 207.46 242.39 206.50 Z" />
<path class="circle" fill="#00b7c3" d=" M 257.37 206.61 C 261.80 204.97 266.67 209.23 265.57 213.84 C 265.42 219.79 255.39 220.48 253.79 215.07 C 253.02 211.92 253.54 207.34 257.37 206.61 Z" />
<path class="circle" fill="#00b7c3" d=" M 333.54 206.69 C 335.08 206.09 336.81 206.31 338.36 206.76 C 343.49 208.64 342.77 218.28 336.92 218.57 C 334.64 218.97 331.92 218.47 330.50 216.50 C 328.44 213.17 329.63 208.04 333.54 206.69 Z" />
<path class="circle" fill="#00b7c3" d=" M 379.49 206.65 C 382.05 205.90 385.56 206.43 386.89 209.03 C 387.76 210.94 387.72 213.18 387.21 215.18 C 385.53 220.44 375.72 219.76 375.47 213.92 C 374.82 210.91 376.57 207.65 379.49 206.65 Z" />
<path class="circle" fill="#00b7c3" d=" M 395.37 206.50 C 399.73 205.19 404.19 209.57 403.10 213.96 C 402.76 219.39 394.44 220.26 391.79 216.22 C 390.26 212.81 390.77 207.04 395.37 206.50 Z" />
<path class="circle" fill="#00b7c3" d=" M 70.43 207.41 C 74.49 204.67 81.03 207.89 80.42 213.04 C 80.53 218.80 71.71 220.96 68.87 216.18 C 67.67 213.38 67.75 209.35 70.43 207.41 Z" />
<path class="circle" fill="#00b7c3" d=" M 209.37 207.46 C 213.44 204.61 220.06 207.89 219.42 213.07 C 219.49 218.81 210.70 220.95 207.87 216.18 C 206.69 213.41 206.74 209.41 209.37 207.46 Z" />
<path class="circle" fill="#00b7c3" d=" M 226.16 207.11 C 230.24 204.86 236.05 208.11 234.92 213.06 C 235.75 218.48 228.20 220.55 224.83 217.22 C 221.43 214.61 222.39 208.87 226.16 207.11 Z" />
<path class="circle" fill="#00b7c3" d=" M 347.22 207.23 C 350.95 205.11 356.71 207.38 356.85 211.97 C 357.68 216.30 352.93 219.85 348.92 218.60 C 343.74 217.88 343.16 209.68 347.22 207.23 Z" />
<path class="circle" fill="#00b7c3" d=" M 363.40 207.28 C 366.28 205.61 371.15 206.41 372.17 209.97 C 372.68 212.52 372.96 215.90 370.58 217.62 C 367.83 219.52 363.60 219.14 361.51 216.43 C 359.18 213.64 360.17 208.93 363.40 207.28 Z" />
<path class="circle" fill="#00b7c3" d=" M 409.34 207.25 C 412.30 205.56 417.22 206.52 418.13 210.20 C 418.48 212.65 418.76 215.77 416.61 217.52 C 413.72 219.67 409.06 219.11 407.07 215.99 C 405.20 213.16 406.20 208.74 409.34 207.25 Z" />
<path class="circle" fill="#00b7c3" d=" M 424.33 207.28 C 428.45 204.78 435.05 207.64 433.90 213.02 C 434.59 217.38 429.73 219.68 426.07 218.62 C 420.90 217.90 420.32 209.76 424.33 207.28 Z" />
<path class="circle" fill="#00b7c3" d=" M 40.42 222.47 C 44.66 219.55 50.68 224.17 49.56 229.04 C 49.44 234.19 42.74 235.11 39.22 232.85 C 36.19 230.09 36.79 224.48 40.42 222.47 Z" />
<path class="circle" fill="#00b7c3" d=" M 56.40 222.24 C 61.10 219.59 66.79 225.08 65.01 229.97 C 64.26 234.17 59.00 234.65 55.73 233.35 C 51.71 231.13 52.32 224.15 56.40 222.24 Z" />
<path class="circle" fill="#00b7c3" d=" M 71.22 222.36 C 75.58 220.09 81.40 224.09 80.38 229.03 C 80.52 233.22 75.55 235.08 72.10 233.89 C 67.05 232.85 66.72 224.30 71.22 222.36 Z" />
<path class="circle" fill="#00b7c3" d=" M 226.37 222.38 C 230.16 220.29 235.85 223.25 234.92 227.93 C 236.11 234.02 227.34 236.27 223.93 232.19 C 221.59 229.05 222.65 223.93 226.37 222.38 Z" />
<path class="circle" fill="#00b7c3" d=" M 241.28 222.23 C 245.98 219.63 251.64 225.04 249.87 229.92 C 249.18 234.23 243.77 234.63 240.49 233.32 C 236.51 230.94 237.18 224.18 241.28 222.23 Z" />
<path class="circle" fill="#00b7c3" d=" M 347.36 222.55 C 351.70 219.94 357.95 223.93 356.84 229.04 C 357.00 235.06 347.17 236.08 345.12 230.93 C 344.23 228.12 344.35 224.05 347.36 222.55 Z" />
<path class="circle" fill="#00b7c3" d=" M 364.29 222.19 C 368.13 220.53 373.29 223.44 372.51 227.96 C 373.48 233.94 365.25 236.09 361.61 232.45 C 358.95 229.20 360.20 223.62 364.29 222.19 Z" />
<path class="circle" fill="#00b7c3" d=" M 378.42 222.47 C 382.63 219.55 388.63 224.17 387.52 229.00 C 387.47 234.14 380.74 235.15 377.25 232.84 C 374.30 230.08 374.85 224.50 378.42 222.47 Z" />
<path class="circle" fill="#00b7c3" d=" M 394.38 222.27 C 399.16 219.52 404.81 225.14 402.94 230.06 C 402.15 234.28 396.86 234.59 393.61 233.33 C 389.72 231.01 390.32 224.16 394.38 222.27 Z" />
<path class="circle" fill="#00b7c3" d=" M 410.25 222.17 C 414.07 220.54 419.16 223.54 418.36 228.00 C 419.16 232.60 413.97 235.32 410.08 233.88 C 404.49 232.68 405.06 223.66 410.25 222.17 Z" />
<path class="circle" fill="#00b7c3" d=" M 425.34 222.38 C 428.33 220.83 433.25 222.17 433.76 225.90 C 433.99 228.28 434.25 231.30 432.11 232.95 C 429.56 234.65 425.74 234.72 423.37 232.66 C 420.64 229.63 421.49 224.06 425.34 222.38 Z" />
<path class="highlightOutline" fill="#a6e6ea" d=" M 102.95 265.88 C 106.13 264.34 109.24 262.12 112.93 262.23 C 194.63 262.27 276.33 262.23 358.02 262.25 C 359.89 262.24 361.67 262.89 363.32 263.72 C 377.91 271.17 392.64 278.34 407.23 285.79 C 409.29 286.90 411.63 287.37 413.98 287.29 C 426.90 287.22 439.82 287.21 452.74 287.29 C 452.74 292.44 452.75 297.60 452.76 302.75 C 440.17 302.76 427.58 302.71 415.00 302.78 C 413.35 302.80 411.67 302.72 410.21 301.90 C 395.57 294.51 380.86 287.25 366.22 279.85 C 363.69 278.50 360.86 277.66 357.97 277.74 C 278.32 277.76 198.67 277.74 119.03 277.75 C 114.46 277.84 109.57 277.11 105.36 279.33 C 91.35 286.35 77.33 293.32 63.33 300.37 C 61.30 301.31 59.33 302.75 57.00 302.74 C 43.92 302.78 30.84 302.71 17.76 302.77 C 17.74 297.60 17.75 292.44 17.75 287.28 C 29.17 287.22 40.59 287.23 52.01 287.27 C 55.67 287.24 59.59 287.74 62.95 285.94 C 76.26 279.20 89.63 272.59 102.95 265.88 Z" />
</svg>
